<?xml version="1.0" encoding="UTF-8" standalone="no"?>
<!-- Created with Inkscape (http://www.inkscape.org/) -->

<svg
   xmlns:dc="http://purl.org/dc/elements/1.1/"
   xmlns:cc="http://creativecommons.org/ns#"
   xmlns:rdf="http://www.w3.org/1999/02/22-rdf-syntax-ns#"
   xmlns:svg="http://www.w3.org/2000/svg"
   xmlns="http://www.w3.org/2000/svg"
   xmlns:sodipodi="http://sodipodi.sourceforge.net/DTD/sodipodi-0.dtd"
   xmlns:inkscape="http://www.inkscape.org/namespaces/inkscape"
   width="480"
   height="480"
   id="svg3005"
   version="1.1"
   inkscape:version="0.48.5 r10040"
   inkscape:export-filename="c:\cc\2015-07-15\empty_photo.png"
   inkscape:export-xdpi="90"
   inkscape:export-ydpi="90"
   sodipodi:docname="New document 2">
  <defs
     id="defs3007" />
  <sodipodi:namedview
     id="base"
     pagecolor="#ffffff"
     bordercolor="#666666"
     borderopacity="1.0"
     inkscape:pageopacity="0.0"
     inkscape:pageshadow="2"
     inkscape:zoom="1"
     inkscape:cx="209"
     inkscape:cy="244.69149"
     inkscape:document-units="px"
     inkscape:current-layer="layer1"
     showgrid="false"
     inkscape:window-width="1366"
     inkscape:window-height="706"
     inkscape:window-x="-8"
     inkscape:window-y="-8"
     inkscape:window-maximized="1" />
  <metadata
     id="metadata3010">
    <rdf:RDF>
      <cc:Work
         rdf:about="">
        <dc:format>image/svg+xml</dc:format>
        <dc:type
           rdf:resource="http://purl.org/dc/dcmitype/StillImage" />
        <dc:title></dc:title>
      </cc:Work>
    </rdf:RDF>
  </metadata>
  <g
     inkscape:label="Layer 1"
     inkscape:groupmode="layer"
     id="layer1"
     transform="translate(0,-572.36218)">
    <g
       id="g2987"
       transform="matrix(3.75,0,0,3.75,0,572.36218)">
      <path
         style="fill:#e2e2e2"
         d="m 0,64 0,-64 64,0 64,0 0,64 0,64 -64,0 -64,0 0,-64 z"
         id="path3003"
         inkscape:connector-curvature="0" />
      <path
         style="fill:#e0e0e0"
         d="m 0,64 0,-64 64,0 64,0 0,64 0,64 -64,0 -64,0 0,-64 z m 70.44362,46.95684 C 102.16132,106.37276 120.568,71.878257 106.51576,43.356905 94.959328,19.9012 66.993005,10.168124 43.550877,21.443334 14.164273,35.577722 7.5740079,74.356617 30.63881,97.421418 c 6.65924,6.659242 17.392348,12.220782 26.016228,13.480742 3.214729,0.46967 6.069962,0.89992 6.344962,0.95609 0.275,0.0562 3.624629,-0.34946 7.44362,-0.90141 z M 50.328848,102.12128 C 42.912432,99.372368 36.556002,94.672661 32.171499,88.69641 25.655998,79.815524 24.497124,76.002408 24.521871,63.52635 24.542014,53.371565 24.775414,52.031186 27.474668,46.568942 31.212067,39.005896 38.988377,31.22432 46.568942,27.461739 52.097318,24.717753 53.280778,24.517884 64,24.517884 c 10.719222,0 11.902682,0.199869 17.431058,2.943855 7.571691,3.758176 15.349027,11.535512 19.107202,19.107203 2.74161,5.523596 2.94447,6.721104 2.9528,17.431058 0.008,10.627448 -0.20729,11.940643 -2.84091,17.307551 -3.771871,7.6865 -11.691137,15.628638 -19.15015,19.205459 -8.013736,3.84283 -23.049434,4.61859 -31.171152,1.60827 z M 83,73.717585 c 0,-1.333507 -9.786554,-18.179092 -10.737095,-18.48175 -0.680403,-0.216644 -2.205525,1.247467 -3.389162,3.253581 l -2.152065,3.64748 -3.110839,-6.318448 C 59.090237,46.636621 57.69898,47.086961 52.237231,59.5 49.817226,65 47.434985,70.5125 46.943362,71.75 L 46.049502,74 64.524751,74 C 74.686138,74 83,73.872913 83,73.717585 z"
         id="path3001"
         inkscape:connector-curvature="0" />
      <path
         style="fill:#dddddd"
         d="m 0,64 0,-64 64,0 64,0 0,64 0,64 -64,0 -64,0 0,-64 z m 79.446035,44.80082 c 16.432567,-5.40052 27.714325,-18.634099 31.269405,-36.679217 1.45579,-7.38937 1.45964,-8.834297 0.0427,-16.026492 C 107.18122,37.939161 96.30578,25.035814 79.718147,19.267205 60.861617,12.709551 39.076123,18.841774 27.013018,34.102746 c -5.298574,6.703199 -7.916133,12.576505 -9.74724,21.870961 -1.444829,7.333758 -1.443209,8.727052 0.01878,16.147896 2.693623,13.67247 9.465464,24.235519 19.953171,31.123937 12.922646,8.4877 27.462655,10.4014 42.208309,5.55528 z M 52.286039,102.60556 C 41.871858,99.211707 31.925163,90.342043 27.180056,80.218065 24.806529,75.153998 24.5,73.299073 24.5,64 24.5,54.685788 24.804452,52.850341 27.195887,47.747356 30.954813,39.726334 38.871664,31.680803 46.889514,27.733628 53.034095,24.708661 54.138207,24.5 64,24.5 c 9.861793,0 10.965905,0.208661 17.110486,3.233628 8.01785,3.947175 15.934701,11.992706 19.693624,20.013728 C 103.19555,52.850341 103.5,54.685788 103.5,64 c 0,9.314212 -0.30445,11.149659 -2.69589,16.252644 -3.742094,7.985111 -11.679009,16.068146 -19.612913,19.973996 -5.625664,2.7695 -7.697117,3.23099 -15.589459,3.47305 -5.742041,0.17611 -10.657225,-0.22776 -13.315699,-1.09413 z M 83,73.466756 c 0,-0.868211 -5.080939,-10.634715 -7.648983,-14.70276 -2.961391,-4.691147 -4.907088,-4.762779 -7.05445,-0.259713 l -1.671077,3.504283 -2.649338,-6.254283 c -2.69748,-6.36793 -5.476979,-8.387089 -7.643418,-5.55254 C 55.556093,51.217893 49.424697,64.985054 46.290556,72.75 45.89771,73.723291 49.905002,74 64.393011,74 74.626855,74 83,73.76004 83,73.466756 z"
         id="path2999"
         inkscape:connector-curvature="0" />
      <path
         style="fill:#d9d9d9"
         d="m 0,64 0,-64 64,0 64,0 0,64 0,64 -64,0 -64,0 0,-64 z m 72.566341,46.91621 C 97.610633,106.34183 115.20584,81.637295 111.10503,56.805976 106.79822,30.727203 82.260281,12.691277 56.805976,16.894966 c -20.656014,3.411268 -36.499742,19.254996 -39.91101,39.91101 -4.584597,27.760793 17.564948,54.185074 46.171375,55.082184 1.961487,0.0615 6.236487,-0.37587 9.5,-0.97195 z M 54.281429,103.0936 C 42.81378,100.14296 30.993644,89.842719 26.959173,79.28458 18.299728,56.622966 30.022574,32.396059 52.931501,25.609122 79.268353,17.806637 105.66287,39.005236 103.74617,66.420616 103.04083,76.509347 99.900944,83.912873 93.30696,91.035163 85.467223,99.503015 77.534867,103.1617 66.072799,103.59652 c -4.71504,0.17887 -10.021156,-0.0474 -11.79137,-0.50292 z M 79.727939,66.25 C 73.319934,53.8703 71.197075,52.421854 68.316,58.463531 l -1.651643,3.463531 -2.290833,-5.636471 C 63.113566,53.190532 61.3873,49.958728 60.537377,49.108806 59.143626,47.715054 58.805509,47.756535 57.08997,49.531746 55.475111,51.202774 46,71.587538 46,73.390718 46,73.725823 54.491389,74 64.869754,74 l 18.869754,0 -4.011569,-7.75 z"
         id="path2997"
         inkscape:connector-curvature="0" />
      <path
         style="fill:#d4d4d4"
         d="m 0,64 0,-64 64,0 64,0 0,64 0,64 -64,0 -64,0 0,-64 z m 75.458446,46.46881 C 101.14336,103.77874 116.98658,77.564953 110.46881,52.541554 103.79836,26.931994 77.560454,11.014597 52.693298,17.491668 26.852122,24.222439 10.994912,50.363973 17.531192,75.458446 24.220295,101.13965 50.438663,116.98563 75.458446,110.46881 z M 54.617739,102.95152 C 48.289894,101.36197 39.284349,96.032143 34.912426,91.289167 32.666565,88.852695 29.405007,83.853394 27.664521,80.179609 24.802643,74.138812 24.5,72.591457 24.5,64 24.5,55.408543 24.802643,53.861188 27.664521,47.820391 32.069014,38.523473 37.73824,32.732847 46.839582,28.23472 53.971697,24.709838 54.932951,24.5 63.948137,24.5 c 8.649682,0 10.182758,0.298892 16.231472,3.164521 C 89.476527,32.069014 95.267153,37.73824 99.76528,46.839582 103.29442,53.980308 103.5,54.924922 103.5,64 c 0,9.075078 -0.20558,10.019692 -3.73472,17.160418 -6.757578,13.673029 -18.762523,21.695502 -33.516042,22.397562 -4.262081,0.20282 -9.496255,-0.0701 -11.631499,-0.60646 z M 79.085887,64.75 C 73.476165,54.364303 71.31486,52.965535 68.428105,57.852422 l -1.753109,2.967777 -2.73806,-5.789627 C 59.179884,44.971789 57.720959,45.614991 51.082355,60.69783 48.28706,67.048712 46,72.639788 46,73.122444 46,73.6051 54.568489,74 65.041087,74 l 19.041087,0 -4.996287,-9.25 z"
         id="path2995"
         inkscape:connector-curvature="0" />
      <path
         style="fill:#d1d1d1"
         d="m 0,64 0,-64 64,0 64,0 0,64 0,64 -64,0 -64,0 0,-64 z m 80.167855,45.26362 c 13.180578,-4.77774 24.162575,-15.73475 29.162105,-29.095765 3.01198,-8.049368 3.01198,-24.286342 0,-32.33571 -4.98354,-13.318279 -15.843826,-24.178562 -29.162105,-29.162106 -8.049368,-3.011978 -24.286342,-3.011978 -32.33571,0 C 29.545609,25.512646 17.458298,41.765218 16.236505,61.153472 14.789141,84.121233 29.071298,103.87177 52,110.61016 c 6.492852,1.90815 21.117696,1.20902 28.167855,-1.34654 z M 54.250674,102.45486 C 38.413115,98.190171 27.844603,86.571518 24.771438,70.046418 22.610745,58.427881 27.067813,44.836949 35.952381,35.952381 c 8.884568,-8.884568 22.4755,-13.341636 34.094037,-11.180943 17.748227,3.300629 29.881515,15.433917 33.182142,33.182144 2.14588,11.538856 -2.29572,25.208813 -11.028026,33.941122 -5.635086,5.635086 -10.693342,8.477676 -18.880133,10.610056 -6.998717,1.82294 -12.164855,1.80942 -19.069727,-0.0499 z M 79.242933,64.75 C 73.637759,54.240597 71.319162,52.782473 68.24673,57.834683 l -1.804393,2.967085 -1.872241,-4.650884 C 63.540363,53.592898 62.021093,50.7125 61.19394,49.75 57.890856,45.906434 56.667714,47.443632 49.045333,65.017909 L 45.149587,74 l 19.51341,0 19.513409,0 -4.933473,-9.25 z"
         id="path2993"
         inkscape:connector-curvature="0" />
      <path
         style="fill:#cdcdcd"
         d="m 0,64 0,-64 64,0 64,0 0,64 0,64 -64,0 -64,0 0,-64 z m 81.324227,45.06213 C 94.569103,103.91955 105.93458,91.61041 110.09979,77.897374 112.87486,68.761075 112.42664,55.407362 109.05185,46.675773 103.93993,33.449752 91.616418,22.067242 77.897374,17.900211 68.761075,15.125145 55.407362,15.573358 46.675773,18.948154 33.449752,24.060066 22.067242,36.383582 17.900211,50.102626 c -2.775066,9.136299 -2.326853,22.490012 1.047943,31.221601 4.956317,12.823451 17.171225,24.362343 30.322008,28.643873 8.555823,2.78554 23.644847,2.35907 32.054065,-0.90597 z M 57.227893,102.98132 C 36.618092,99.978057 21.234988,78.484041 24.881087,57.784802 28.721225,35.983988 48.14916,21.911403 70.118991,25.016819 94.380348,28.44614 109.55604,53.941198 101.3471,77.47983 97.768376,87.741595 87.152354,98.223299 77.155699,101.36515 c -6.233044,1.95899 -13.519776,2.54995 -19.927806,1.61617 z M 79.520477,65.040772 c -4.839191,-9.635405 -7.355981,-12.062411 -9.885522,-9.53287 -0.827166,0.827166 -1.809397,2.466355 -2.182736,3.642642 -0.562503,1.772292 -1.135195,1.043148 -3.342727,-4.25592 C 62.195378,50.299891 60.865656,48.41605 59.385276,48.201743 56.79855,47.827276 55.83113,49.024275 52.678586,56.5 51.286962,59.8 48.995655,65.0875 47.586791,68.25 L 45.02522,74 l 19.497426,0 19.497425,0 -4.499594,-8.959228 z"
         id="path2991"
         inkscape:connector-curvature="0" />
      <path
         style="fill:#cbcbcb"
         d="m 0,64 0,-64 64,0 64,0 0,64 0,64 -64,0 -64,0 0,-64 z m 77.068499,46.38848 C 93.866112,105.40463 106.25052,92.902785 110.63865,76.5 c 1.71538,-6.41209 1.71538,-18.58791 0,-25 C 104.98263,30.357847 86.119802,16 64,16 41.880198,16 23.017365,30.357847 17.361353,51.5 c -1.715382,6.41209 -1.715382,18.58791 0,25 5.638911,21.078228 24.1774,35.29939 46.207146,35.44622 4.665661,0.0311 10.3592,-0.62587 13.5,-1.55774 z M 57.22624,102.8879 C 41.292958,100.23438 27.328222,85.916037 25.151737,70.001236 22.184458,48.304026 36.604843,28.522993 57.888099,25.095424 83.904253,20.905644 107.09489,44.092399 102.90562,70.105403 100.2168,86.801443 86.721006,100.21697 69.861901,102.95259 66.362855,103.52035 63.275,103.93568 63,103.87554 62.725,103.8154 60.126808,103.37096 57.22624,102.8879 z M 84,73.403925 c 0,-1.2118 -9.098716,-17.240962 -10.399253,-18.320313 -1.948104,-1.616782 -4.192138,-0.403019 -5.988206,3.238929 -1.001925,2.031635 -1.575212,2.534403 -1.589771,1.394215 -0.01252,-0.980784 -1.155351,-4.018284 -2.539616,-6.75 C 60.670826,47.416893 58.018439,46.50478 55.582944,50.25 54.316847,52.196962 48.588098,64.956459 45.929891,71.75 L 45.049502,74 64.524751,74 C 75.236138,74 84,73.731766 84,73.403925 z"
         id="path2989"
         inkscape:connector-curvature="0" />
    </g>
  </g>
</svg>
